<?xml version="1.0" encoding="UTF-8" standalone="no"?>
<svg
   width="1440"
   height="992"
   fill="none"
   version="1.1"
   id="svg24"
   sodipodi:docname="bg-pattern.b5041200.svg"
   inkscape:version="1.1.1 (3bf5ae0d25, 2021-09-20)"
   xmlns:inkscape="http://www.inkscape.org/namespaces/inkscape"
   xmlns:sodipodi="http://sodipodi.sourceforge.net/DTD/sodipodi-0.dtd"
   xmlns="http://www.w3.org/2000/svg"
   xmlns:svg="http://www.w3.org/2000/svg">
  <sodipodi:namedview
     id="namedview26"
     pagecolor="#ffffff"
     bordercolor="#666666"
     borderopacity="1.0"
     inkscape:pageshadow="2"
     inkscape:pageopacity="0.0"
     inkscape:pagecheckerboard="0"
     showgrid="false"
     inkscape:zoom="0.43951613"
     inkscape:cx="718.97248"
     inkscape:cy="494.86239"
     inkscape:window-width="1366"
     inkscape:window-height="705"
     inkscape:window-x="-8"
     inkscape:window-y="-8"
     inkscape:window-maximized="1"
     inkscape:current-layer="svg24" />
  <g
     clip-path="url('#clip0_628_19126')"
     id="g12"
     style="fill:#000000;fill-opacity:0.05">
    <path
       fill="#F7F8F9"
       d="M0 0h1440v992H0z"
       id="path2"
       style="fill:#000000;fill-opacity:0.05" />
    <g
       opacity=".4"
       id="g8"
       style="fill:#000000;fill-opacity:0.05">
      <path
         fill="#fff"
         d="M0 0h1440v1320H0z"
         id="path4"
         style="fill:#000000;fill-opacity:0.05" />
      <path
         stroke="#EEF0F3"
         d="M1464 672.5H-24M1464 696.5H-24M1464 720.5H-24M1464 744.5H-24M1464 768.5H-24M1464 792.5H-24M1464 816.5H-24M1464 840.5H-24M1464 864.5H-24M1464 888.5H-24M1464 912.5H-24M1464 936.5H-24M1464 960.5H-24M1464 984.5H-24M24.5 648v720M24.5 648v720M48.5 648v720M72.5 648v720M96.5 648v720M120.5 648v720M144.5 648v720M168.5 648v720M192.5 648v720M216.5 648v720M240.5 648v720M264.5 648v720M288.5 648v720M312.5 648v720M336.5 648v720M360.5 648v720M384.5 648v720M408.5 648v720M432.5 648v720M456.5 648v720M480.5 648v720M504.5 648v720M528.5 648v720M552.5 648v720M576.5 648v720M600.5 648v720M624.5 648v720M648.5 648v720M672.5 648v720M696.5 648v720M720.5 648v720M744.5 648v720M768.5 648v720M792.5 648v720M816.5 648v720M840.5 648v720M864.5 648v720M888.5 648v720M912.5 648v720M936.5 648v720M960.5 648v720M984.5 648v720M1008.5 648v720M1032.5 648v720M1056.5 648v720M1080.5 648v720M1104.5 648v720M1128.5 648v720M1152.5 648v720M1176.5 648v720M1200.5 648v720M1224.5 648v720M1248.5 648v720M1272.5 648v720M1296.5 648v720M1320.5 648v720M1344.5 648v720M1368.5 648v720M1392.5 648v720M1416.5 648v720M.5-48v720M1464 .5H-24M1464 24.5H-24M1464 48.5H-24M1464 72.5H-24M1464 96.5H-24M1464 120.5H-24M1464 144.5H-24M1464 168.5H-24M1464 192.5H-24M1464 216.5H-24M1464 240.5H-24M1464 264.5H-24M1464 288.5H-24M1464 312.5H-24M1464 336.5H-24M1464 360.5H-24M1464 384.5H-24M1464 408.5H-24M1464 432.5H-24M1464 456.5H-24M1464 480.5H-24M1464 504.5H-24M1464 528.5H-24M1464 552.5H-24M1464 576.5H-24M1464 600.5H-24M1464 624.5H-24M1464 648.5H-24M24.5-48v720M24.5-48v720M48.5-48v720M72.5-48v720M96.5-48v720M120.5-48v720M144.5-48v720M168.5-48v720M192.5-48v720M216.5-48v720M240.5-48v720M264.5-48v720M288.5-48v720M312.5-48v720M336.5-48v720M360.5-48v720M384.5-48v720M408.5-48v720M432.5-48v720M456.5-48v720M480.5-48v720M504.5-48v720M528.5-48v720M552.5-48v720M576.5-48v720M600.5-48v720M624.5-48v720M648.5-48v720M672.5-48v720M696.5-48v720M720.5-48v720M744.5-48v720M768.5-48v720M792.5-48v720M816.5-48v720M840.5-48v720M864.5-48v720M888.5-48v720M912.5-48v720M936.5-48v720M960.5-48v720M984.5-48v720M1008.5-48v720M1032.5-48v720M1056.5-48v720M1080.5-48v720M1104.5-48v720M1128.5-48v720M1152.5-48v720M1176.5-48v720M1200.5-48v720M1224.5-48v720M1248.5-48v720M1272.5-48v720M1296.5-48v720M1320.5-48v720M1344.5-48v720M1368.5-48v720M1392.5-48v720M1416.5-48v720"
         id="path6"
         style="fill:#000000;fill-opacity:0.05" />
    </g>
    <path
       fill="url('#paint0_radial_628_19126')"
       d="M0 0h1440v992H0z"
       id="path10"
       style="fill:#000000;fill-opacity:0.05" />
  </g>
  <defs
     id="defs22">
    <radialGradient
       id="paint0_radial_628_19126"
       cx="0"
       cy="0"
       r="1"
       gradientUnits="userSpaceOnUse"
       gradientTransform="matrix(0 496 -720 0 720 496)">
      <stop
         stop-color="#fff"
         stop-opacity="0"
         id="stop14" />
      <stop
         offset="1"
         stop-color="#fff"
         id="stop16" />
    </radialGradient>
    <clipPath
       id="clip0_628_19126">
      <path
         fill="#fff"
         d="M0 0h1440v992H0z"
         id="path19" />
    </clipPath>
  </defs>
</svg>
